<?xml version="1.0" encoding="UTF-8" standalone="no"?>
<!-- Created with Inkscape (http://www.inkscape.org/) -->

<svg
   width="74mm"
   height="74mm"
   viewBox="0 0 74 74"
   version="1.1"
   id="svg5"
   inkscape:version="1.1.2 (0a00cf5339, 2022-02-04, custom)"
   sodipodi:docname="open-needs-icon.svg"
   inkscape:export-filename="/home/daniel/workspace/open-needs/open-needs-icon.png"
   inkscape:export-xdpi="90"
   inkscape:export-ydpi="90"
   xmlns:inkscape="http://www.inkscape.org/namespaces/inkscape"
   xmlns:sodipodi="http://sodipodi.sourceforge.net/DTD/sodipodi-0.dtd"
   xmlns="http://www.w3.org/2000/svg"
   xmlns:svg="http://www.w3.org/2000/svg">
  <sodipodi:namedview
     id="namedview7"
     pagecolor="#ffffff"
     bordercolor="#666666"
     borderopacity="1.0"
     inkscape:pageshadow="2"
     inkscape:pageopacity="0.0"
     inkscape:pagecheckerboard="true"
     inkscape:document-units="mm"
     showgrid="false"
     inkscape:snap-nodes="false"
     fit-margin-top="0"
     fit-margin-left="0"
     fit-margin-right="0"
     fit-margin-bottom="0"
     inkscape:zoom="2.2652217"
     inkscape:cx="157.15901"
     inkscape:cy="157.37974"
     inkscape:window-width="2560"
     inkscape:window-height="1384"
     inkscape:window-x="4480"
     inkscape:window-y="28"
     inkscape:window-maximized="1"
     inkscape:current-layer="layer1"
     height="61mm" />
  <defs
     id="defs2" />
  <g
     inkscape:label="Layer 1"
     inkscape:groupmode="layer"
     id="layer1"
     transform="translate(-87.968887,-73.818117)">
    <g
       id="g4455"
       transform="translate(11.095438,0.19902772)">
      <g
         id="g2998"
         transform="matrix(1.3214391,0.08145202,-0.08689811,1.2386217,-5.9857995,-23.238851)">
        <path
           style="fill:#000000;stroke-width:1"
           d="m 80.151481,131.47129 c -0.0692,-0.39302 -0.328111,-3.1541 -0.634385,-6.76448 -0.179736,-2.11874 -0.458162,-5.36196 -0.618719,-7.20716 l -0.291918,-3.35491 6.235768,-13.19973 c 7.555779,-15.993909 8.262846,-17.371621 8.806002,-18.28778 l 0.148226,-0.250016 0.265989,0.0852 c 1.460446,0.467808 15.145986,6.917122 16.436376,7.745648 0.21699,0.139326 0.22989,0.16235 0.18437,0.3294 -0.32357,1.187543 -12.68054,27.433258 -14.763141,31.354758 l -0.356035,0.6704 -0.930166,0.61498 c -0.511585,0.33824 -2.739018,1.87488 -4.949835,3.41476 -5.877168,4.09357 -8.1149,5.57673 -8.770727,5.81318 -0.297238,0.1071 -0.475854,-0.0207 -0.614779,-0.44012 -0.06442,-0.19402 -0.130489,-0.42992 -0.147026,-0.52413 z m 1.503513,-1.19677 c 0.262819,-0.0974 4.638008,-3.12132 4.823993,-3.33405 0.05463,-0.0625 -0.64232,-0.42553 -2.682446,-1.39762 -1.515965,-0.72216 -2.767002,-1.28421 -2.780238,-1.24866 -0.01322,0.0356 -0.0079,0.25544 0.01196,0.48868 0.01985,0.23323 0.110973,1.31491 0.202594,2.40369 0.24306,2.88844 0.277907,3.14218 0.424135,3.08797 z m -0.16706,-7.53721 c 0.744724,0.46649 5.133087,2.53355 5.980154,2.81715 0.600399,0.20082 0.66658,0.20769 0.870143,0.0905 0.875206,-0.50406 5.249538,-3.52941 5.333025,-3.6884 0.03256,-0.062 -13.296095,-6.44414 -13.388722,-6.41084 -0.06191,0.0222 0.511486,6.41097 0.606015,6.75171 0.01228,0.043 0.281621,0.24127 0.599261,0.44018 z m 6.23517,-5.42259 7.234327,3.40907 7.477929,-15.86747 6.5756,-13.95279 -7.2562,-3.419858 -7.2562,-3.419862 -6.565387,13.931124 C 82.461122,109.6061 80.4707,113.85536 80.477114,113.87321 c 0.0064,0.0178 3.267106,1.56655 7.245975,3.44155 z m -3.821446,-3.50689 c 0.407295,-1.32243 0.27477,-1.1715 7.21463,-15.846735 5.278652,-11.162399 5.124755,-10.695048 5.500905,-11.285246 0.100698,-0.158009 0.197086,-0.235845 0.296692,-0.239599 0.255784,-0.0096 0.634008,0.169206 0.750815,0.355052 0.103126,0.164042 0.08139,0.251911 -0.261577,1.057139 -1.879809,4.413567 -9.128142,19.864489 -11.4614,24.413389 -1.129976,2.20299 -1.35001,2.49397 -1.770574,2.34143 -0.308188,-0.11174 -0.398207,-0.3775 -0.26949,-0.79542 z m 7.93053,3.96037 c 0.05286,-0.36386 0.478954,-1.46652 1.129122,-2.92192 2.484876,-5.56238 7.544,-16.244796 10.4911,-22.182482 1.12435,-2.265306 1.21757,-2.428004 1.40784,-2.457242 0.24623,-0.03784 0.53531,0.07837 0.73125,0.293959 0.13594,0.149564 0.13452,0.186343 -0.0231,0.602024 -0.4165,1.098337 0.13461,0.061 -4.87473,10.728941 -6.804857,14.49171 -7.392497,15.5772 -7.966498,16.35486 -0.226195,0.30645 -0.490397,0.32101 -0.746353,0.0411 -0.205942,-0.22519 -0.189866,-0.17537 -0.148579,-0.45927 z"
           id="path2054"
           sodipodi:nodetypes="ssscsscsssscssccssssscsssscssscsscscccsssssssscsssscssssssssccsss" />
        <path
           d="m 115.29954,81.006604 c -0.93131,2.404659 -4.69717,10.061601 -5.00244,10.17133 -0.20403,0.07333 -2.56381,-0.950476 -7.52969,-3.266781 -5.335027,-2.488494 -9.218728,-4.437014 -9.301232,-4.66659 -0.07565,-0.210506 1.376432,-3.586517 3.041761,-7.071931 1.265484,-2.648676 1.972347,-3.983451 2.141475,-4.044251 0.188946,-0.0679 3.919266,-1.486128 9.834326,1.301833 5.86158,2.762673 7.02092,6.483778 7.08966,6.675021 0.0199,0.0554 -0.10332,0.461039 -0.27386,0.901369 z m -3.3437,-1.257051 c -3.07356,-1.53407 -11.90289,-5.627304 -12.390044,-5.743959 -0.175141,-0.04194 -0.200012,-0.02785 -0.368611,0.208816 -0.0994,0.139606 -0.310048,0.53123 -0.468158,0.870247 l -0.287229,0.616517 7.253602,3.418396 7.2536,3.418392 0.23592,-0.484192 c 0.29386,-0.602439 0.52348,-1.26022 0.48128,-1.377647 -0.0175,-0.04885 -0.78723,-0.465818 -1.7104,-0.926592 z M 97.274635,78.184898 c -0.275923,0.597219 -0.48862,1.123143 -0.472175,1.168941 0.03549,0.09875 1.399055,0.759443 8.8174,4.272345 l 5.57446,2.639761 0.54848,-1.161486 0.54848,-1.161489 -7.25753,-3.422018 -7.257547,-3.422022 z m -1.644714,3.478242 -0.454607,0.964646 7.255306,3.4192 7.25529,3.419193 0.45633,-0.963599 0.45632,-0.9636 -7.25671,-3.420101 -7.256704,-3.420099 z"
           style="fill:#000000;stroke-width:0.264583"
           id="path3519" />
        <path
           style="fill:#00ff00;stroke:#00ff00;stroke-width:0.497597;stroke-linejoin:round;stroke-miterlimit:4;stroke-dasharray:none;stroke-opacity:0.999444;paint-order:fill markers stroke"
           d="m 81.480584,128.81025 c -0.386433,-3.13135 -1.13644,-13.03046 -0.998019,-13.17244 0.271543,-0.27855 12.877811,5.85047 12.858608,6.2517 -0.006,0.1194 -0.554648,0.60514 -1.219836,1.07919 -2.011067,1.43318 -9.801017,6.83906 -10.146629,7.04132 -0.211082,0.12343 -0.382048,-0.29155 -0.494124,-1.19977 z"
           id="path17902" />
        <path
           style="fill:#000000;fill-opacity:1;stroke:#190000;stroke-width:1.96913;stroke-miterlimit:4;stroke-dasharray:none;stroke-opacity:0.999444"
           d="m 135.51554,54.623173 c -15.00114,-7.076338 -27.30789,-12.878449 -27.34835,-12.89358 -0.11022,-0.04123 3.29386,-7.201832 3.4103,-7.173665 0.0749,0.01812 54.57687,25.672114 54.66785,25.732077 0.0347,0.02285 -3.37338,7.212937 -3.41599,7.206831 -0.0215,-0.0031 -12.31268,-5.795324 -27.31381,-12.871663 z"
           id="path2047"
           transform="matrix(0.26458333,0,0,0.26458333,66.59098,71.58971)" />
        <path
           style="fill:#000000;fill-opacity:1;stroke:#190000;stroke-width:1.72724;stroke-miterlimit:4;stroke-dasharray:none;stroke-opacity:0.999444"
           d="M 152.24779,47.66301 C 121.22694,32.963835 114.59107,29.755853 114.34951,29.341838 c -0.0762,-0.130596 0.008,-0.467011 0.30534,-1.214009 0.59982,-1.509006 3.19579,-7.158579 3.28936,-7.158579 0.0676,0 54.64249,25.704531 54.67825,25.753196 0.0135,0.01835 -4.03784,8.606605 -4.07395,8.636217 -0.0121,0.0099 -7.3474,-3.45314 -16.30072,-7.695653 z"
           id="path2437"
           transform="matrix(0.26458333,0,0,0.26458333,66.59098,71.58971)" />
        <path
           style="fill:#000000;fill-opacity:1;stroke:#190000;stroke-width:1.72724;stroke-miterlimit:4;stroke-dasharray:none;stroke-opacity:0.999444"
           d="m 147.94358,28.468364 c -14.90196,-7.031767 -27.18242,-12.824883 -27.2899,-12.873592 -0.17459,-0.07912 -0.0975,-0.294423 0.7232,-2.019942 0.98554,-2.072057 1.67963,-3.331088 2.21229,-4.012929 0.311,-0.3981061 0.36349,-0.4226311 0.79938,-0.3734992 0.75641,0.085258 7.53496,3.0909872 19.913,8.8297762 19.91218,9.231815 33.28644,15.775449 33.52768,16.404103 0.15471,0.403166 -0.75534,2.939797 -1.95414,5.446886 -0.37006,0.773931 -0.70979,1.401989 -0.75494,1.395686 -0.0452,-0.0063 -12.27461,-5.764722 -27.17657,-12.796489 z"
           id="path2476"
           transform="matrix(0.26458333,0,0,0.26458333,66.59098,71.58971)" />
        <path
           style="fill:#000000;fill-opacity:1;stroke:#190000;stroke-width:1.89354;stroke-miterlimit:4;stroke-dasharray:none;stroke-opacity:0.999444"
           d="M 95.354907,179.97764 C 66.814653,166.50828 56.171932,161.46513 54.491087,160.61396 l -1.809965,-0.91656 1.112515,-2.42802 c 1.014659,-2.21445 22.526296,-47.93336 43.334443,-92.099157 4.59002,-9.742424 8.42502,-17.713499 8.52222,-17.713499 0.2172,0 54.09813,25.37057 54.30709,25.571235 0.18348,0.176204 -52.59471,112.211451 -52.90385,112.301971 -0.1214,0.0356 -5.38579,-2.37298 -11.698633,-5.35229 z m 3.25782,-3.56003 c 1.891943,-1.97559 6.358683,-11.00073 24.334033,-49.16737 21.23494,-45.087641 24.96202,-53.380081 24.78778,-55.150724 -0.12477,-1.268002 -2.48515,-2.326433 -3.58337,-1.60685 -0.94125,0.616732 -11.61945,22.324754 -26.88763,54.660644 -12.85366,27.22227 -20.322305,43.77581 -21.562643,47.79156 -0.626367,2.02794 -0.591958,2.65373 0.188853,3.43454 0.865108,0.86511 1.916954,0.87987 2.722977,0.0382 z M 68.29041,162.15523 c 0.797507,-0.71369 1.825353,-2.4046 4.149372,-6.82615 8.324168,-15.83709 43.494218,-90.953165 45.109678,-96.345107 0.21053,-0.702674 0.21861,-1.067653 0.0327,-1.475743 -0.313,-0.68696 -1.77637,-1.443077 -2.7929,-1.443077 -0.66371,0 -0.88137,0.139817 -1.46039,0.938098 -1.52159,2.097777 -9.01765,17.664579 -31.47501,65.363059 -12.940107,27.48424 -15.502529,33.24707 -16.519827,37.15274 -0.427498,1.64128 -0.153655,2.62251 0.853459,3.0581 0.805878,0.34855 1.368006,0.23577 2.102948,-0.42192 z"
           id="path2712"
           transform="matrix(0.26458333,0,0,0.26458333,66.59098,71.58971)" />
      </g>
      <rect
         style="fill:#00ffff;fill-opacity:1;fill-rule:nonzero;stroke:#00ffff;stroke-width:2.904;stroke-linecap:round;stroke-linejoin:round;stroke-miterlimit:14.7;stroke-dasharray:none;stroke-opacity:1;paint-order:stroke fill markers"
         id="rect3022"
         width="4.0547624"
         height="17.872829"
         x="-11.182885"
         y="142.00542"
         transform="matrix(0.47424149,-0.8803948,0.86630555,0.49951446,0,0)" />
      <rect
         style="fill:#ff0000;fill-opacity:1;fill-rule:nonzero;stroke:#ff0000;stroke-width:2.99194;stroke-linecap:round;stroke-linejoin:round;stroke-miterlimit:14.7;stroke-dasharray:none;stroke-opacity:1;paint-order:stroke fill markers"
         id="rect3022-6"
         width="4.2736883"
         height="17.999701"
         x="-17.60799"
         y="141.92459"
         transform="matrix(0.4527452,-0.89163994,0.85306025,0.52181243,0,0)" />
      <rect
         style="fill:#ffff00;fill-opacity:1;fill-rule:nonzero;stroke:#ffff00;stroke-width:2.93157;stroke-linecap:round;stroke-linejoin:round;stroke-miterlimit:14.7;stroke-dasharray:none;stroke-opacity:1;paint-order:stroke fill markers"
         id="rect3022-6-7"
         width="4.1485591"
         height="17.802061"
         x="-24.832096"
         y="140.5887"
         transform="matrix(0.44013248,-0.89793285,0.84469254,0.53525183,0,0)" />
    </g>
  </g>
</svg>
